<svg aria-hidden="true" style="width:0;height:0;position:absolute;overflow:hidden" xmlns="http://www.w3.org/2000/svg"><defs><symbol id="icon-social-instagram" viewBox="0 0 32 32"><path d="M16 0c4.356 0 4.892.032 6.596.094 1.672.064 2.84.348 3.88.758 1.074.41 1.958.946 2.84 1.83.886.884 1.42 1.768 1.832 2.84.41 1.042.694 2.21.758 3.882.062 1.704.094 2.24.094 6.596s-.032 4.892-.094 6.596c-.064 1.672-.348 2.84-.758 3.88a7.736 7.736 0 0 1-1.829 2.839l-.001.001c-.884.886-1.768 1.42-2.84 1.832-1.042.41-2.21.694-3.882.758-1.704.062-2.24.094-6.596.094s-4.892-.032-6.596-.094c-1.672-.064-2.84-.348-3.88-.758a7.728 7.728 0 0 1-2.839-1.829l-.001-.001a7.712 7.712 0 0 1-1.815-2.787l-.017-.053c-.41-1.042-.694-2.21-.758-3.882C.032 20.892 0 20.356 0 16s.032-4.892.094-6.596c.064-1.672.348-2.84.758-3.88.41-1.074.946-1.958 1.83-2.84.884-.886 1.768-1.42 2.84-1.832C6.564.442 7.732.158 9.404.094 11.108.032 11.644 0 16 0zm0 2.082c-4.544 0-5.08.032-6.848.096-1.64.062-2.556.38-3.156.6-1.546.63-2.588 1.672-3.22 3.218-.22.6-.536 1.514-.6 3.156-.06 1.768-.094 2.304-.094 6.848s.032 5.08.096 6.848c.062 1.64.38 2.556.6 3.156.63 1.546 1.672 2.588 3.218 3.22.6.22 1.514.536 3.156.6 1.768.06 2.304.094 6.848.094s5.08-.032 6.848-.096c1.64-.062 2.556-.38 3.156-.6 1.546-.63 2.588-1.672 3.22-3.218.22-.6.536-1.514.6-3.156.06-1.768.094-2.304.094-6.848s-.032-5.08-.096-6.848c-.062-1.64-.38-2.556-.6-3.156-.63-1.546-1.672-2.588-3.218-3.22-.6-.22-1.514-.536-3.156-.6-1.768-.06-2.304-.094-6.848-.094zm0 20.324A6.411 6.411 0 0 0 22.406 16 6.41 6.41 0 0 0 16 9.594 6.41 6.41 0 0 0 9.594 16 6.41 6.41 0 0 0 16 22.406zm0-14.612h.018a8.188 8.188 0 0 1 8.188 8.188v.019V16v.018a8.188 8.188 0 0 1-8.188 8.188h-.019H16h-.018a8.188 8.188 0 0 1-8.188-8.188v-.019V16v-.018a8.188 8.188 0 0 1 8.188-8.188h.019H16zm10.478-.314c0 1.072-.884 1.892-1.958 1.892h-.032a1.86 1.86 0 0 1-1.86-1.86v-.034.002c0-1.074.82-1.958 1.892-1.958 1.074 0 1.958.884 1.958 1.958z"/></symbol><symbol id="icon-social-tumblr" viewBox="0 0 32 32"><path d="M17.524 2v6.992h7.34v2.998h-7.308l-.01 8.7c0 1.616.088 2.654.268 3.114.28.726 1.294 1.656 3.18 1.656 1.46 0 3.434-.42 4.912-1.476v4.664c-1.232.56-2.38.788-3.378 1.014-1 .226-2.082.34-3.244.34-1.294 0-5.028-.036-6.56-3.762-.276-.67-.414-1.644-.414-2.92V11.994H8.094l.02-3.064C9.51 8.93 13.7 8.12 13.7 2h3.826zm0-2H13.7c-1.16 0-2.096.896-2.096 2 0 4.574-2.672 4.93-3.49 4.93-1.152 0-2.088.89-2.094 1.99L6 11.984v.001c0 .558.234 1.062.609 1.418l.001.001a2.129 2.129 0 0 0 1.484.588h2.12v9.328c0 1.542.184 2.738.56 3.65.946 2.296 3.186 5.03 8.51 5.03 1.318 0 2.572-.132 3.726-.392l.23-.052c.978-.22 2.226-.494 3.568-1.104.356-.16.658-.418.868-.736.202-.3.323-.67.324-1.068v-4.664a1.923 1.923 0 0 0-.317-1.057l.005.007a2.08 2.08 0 0 0-.832-.731l-.012-.005a2.158 2.158 0 0 0-2.198.19l.006-.004c-1.246.89-2.84 1.078-3.66 1.078-.836 0-1.148-.29-1.216-.368-.036-.156-.136-.742-.136-2.404l.008-6.7h5.216c1.156 0 2.094-.896 2.094-2V8.992c0-1.104-.938-2-2.094-2h-5.246V2c0-1.104-.938-2-2.094-2z"/></symbol><symbol id="icon-social-twitter" viewBox="0 0 32 32"><path d="M21.384 3.994c1.652 0 3.144.674 4.194 1.756a11.765 11.765 0 0 0 3.698-1.38l-.056.03a5.648 5.648 0 0 1-2.495 3.058l-.027.014a11.754 11.754 0 0 0 3.378-.902L30 6.6a11.629 11.629 0 0 1-2.832 2.852l-.036.024c.01.24.016.48.016.718 0 7.344-5.778 15.812-16.344 15.812h-.023a16.58 16.58 0 0 1-8.85-2.543l.069.041c.421.053.908.084 1.402.084 2.68 0 5.152-.896 7.13-2.405l-.029.021c-2.516-.042-4.638-1.65-5.366-3.858a5.885 5.885 0 0 0 2.635-.103l-.041.01c-2.628-.508-4.608-2.756-4.608-5.45v-.07c.774.416 1.66.666 2.602.696a5.513 5.513 0 0 1-2.556-4.627v-.001c0-1.02.284-1.974.78-2.792 2.889 3.388 7.088 5.586 11.803 5.805l.037.001a5.242 5.242 0 0 1-.152-1.266c0-3.068 2.572-5.556 5.746-5.556zM30 6.598zM21.384 2c-3.924 0-7.176 2.86-7.676 6.556a14.526 14.526 0 0 1-8.213-4.808l-.017-.02a1.996 1.996 0 0 0-3.237.246l-.005.009A7.313 7.313 0 0 0 1.17 7.805c0 .931.172 1.822.487 2.643l-.017-.051a1.99 1.99 0 0 0-.516 1.336v.072a7.45 7.45 0 0 0 2.06 5.124 2.001 2.001 0 0 0 .06 1.054l-.004-.014a7.543 7.543 0 0 0 2.285 3.381l.011.009a9.717 9.717 0 0 1-2.157.236c-.403 0-.8-.024-1.19-.07l.047.005a1.997 1.997 0 0 0-2.118 1.306l-.004.014a1.99 1.99 0 0 0 .818 2.347l.008.005c2.795 1.757 6.195 2.8 9.837 2.8h.024-.001c11.37 0 18.21-8.878 18.344-17.548a13.51 13.51 0 0 0 2.422-2.612l.028-.042a1.992 1.992 0 0 0-.448-2.834l-.006-.004a1.992 1.992 0 0 0-1.912-2.55h-.008c-.366 0-.71.099-1.005.271l.009-.005c-.66.38-1.368.68-2.112.898a7.844 7.844 0 0 0-4.728-1.574z"/></symbol><symbol id="icon-social-youtube" viewBox="0 0 32 32"><path d="M29.384 5.512C28.518 4.864 26.104 4 15.992 4 5.154 4 3.546 4.992 3.032 5.316.282 7.036.022 14.648 0 16.192c.032 2.04.35 8.82 3.028 10.5C3.544 27.014 5.142 28 15.992 28c10.12 0 12.53-.86 13.392-1.506 2.34-1.754 2.61-7.8 2.616-10.328-.006-2.036-.21-8.848-2.616-10.654zm-1.168 19.292c-.348.26-2.346 1.114-12.224 1.114-9.55 0-11.554-.772-11.934-1.01-.964-.604-1.98-3.804-2.06-8.722.08-4.908 1.11-8.49 2.062-9.086.38-.24 2.392-1.018 11.932-1.018 9.87 0 11.874.86 12.224 1.12.856.644 1.772 4.026 1.786 8.97-.014 5.02-.936 7.994-1.786 8.632zm-5.71-9.622-8.988-5.75a.972.972 0 0 0-1.378.361l-.003.005a1.058 1.058 0 0 0-.136.524v11.502c0 .276.106.54.292.736a.977.977 0 0 0 1.228.154l-.004.002 8.988-5.752c.292-.19.482-.515.482-.884v-.015c0-.369-.19-.693-.478-.881l-.004-.002zM14 19.98v-7.812l6.056 3.904L14 19.98z"/></symbol></defs></svg>