<svg aria-hidden="true" style="width:0;height:0;position:absolute;overflow:hidden" xmlns="http://www.w3.org/2000/svg"><defs><symbol id="icon-mobal-buy-cross" viewBox="0 0 32 32"><path d="m16 14.115 6.6-6.6L24.485 9.4l-6.6 6.6 6.6 6.6-1.885 1.885-6.6-6.6-6.6 6.6L7.515 22.6l6.6-6.6-6.6-6.6L9.4 7.515l6.6 6.6z"/></symbol><symbol id="icon-select-arrow" viewBox="0 0 32 32"><path d="m16 18.667-5.333-5.333h10.667l-5.333 5.333z"/></symbol><symbol id="icon-icon-check" viewBox="0 0 32 32"><path d="M4 1h24a4 4 0 0 1 4 4v22a4 4 0 0 1-4 4H4a4 4 0 0 1-4-4V5a4 4 0 0 1 4-4z"/><path fill="#fff" style="fill:var(--color2,#fff);stroke:var(--color2,#fff)" stroke="#fff" stroke-width=".4" d="m7.914 16.503-.138-.131-2.067 1.958 7.282 6.947 15.298-14.594-2.053-1.959-13.245 12.623-5.077-4.844z"/></symbol><symbol id="icon-ep_arrow-right" viewBox="0 0 32 32"><path fill="#f3f3f3" style="fill:var(--color1,#f3f3f3)" d="M4.666 21.348a.958.958 0 0 0 1.336 0L16 11.602l9.996 9.746a.958.958 0 0 0 1.336 0 .925.925 0 0 0 .276-.652.896.896 0 0 0-.276-.652L16.698 9.68a1 1 0 0 0-1.396 0L4.668 20.044a.925.925 0 0 0-.276.652.896.896 0 0 0 .276.652h-.002z"/><symbol id="icon-gallery_arrow-left" viewBox="0 0 32 32"><path fill="#f3f3f3" d="M21.733 27.718c.171-.185.267-.433.267-.691s-.096-.506-.267-.691L12.166 16l9.567-10.334c.171-.185.267-.433.267-.691s-.096-.506-.267-.691a.878.878 0 0 0-.64-.284c-.119 0-.237.025-.347.074s-.209.12-.293.21L10.279 15.278C10.1 15.471 10 15.73 10 16s.1.529.279.722l10.174 10.994a.878.878 0 0 0 .64.284c.119 0 .237-.025.347-.074s.209-.12.293-.21v.002z"/></symbol><symbol id="icon-gallery_arrow-right" viewBox="0 0 32 32"><path fill="#f3f3f3" d="M10.267 4.282c-.171.185-.267.433-.267.691s.096.506.267.691L19.834 16l-9.567 10.334c-.171.185-.267.433-.267.691s.096.506.267.691a.878.878 0 0 0 .64.284c.119 0 .237-.025.347-.074s.209-.12.293-.21l10.174-10.994C21.9 16.529 22 16.27 22 16s-.1-.529-.279-.722L11.547 4.284a.878.878 0 0 0-.64-.284c-.119 0-.237.025-.347.074s-.209.12-.293.21v-.002z"/></symbol></symbol></defs></svg>