<svg aria-hidden="true" style="width: 0; height: 0; position: absolute; overflow: hidden" version="1.1" xmlns="http://www.w3.org/2000/svg" xmlns:xlink="http://www.w3.org/1999/xlink">
<defs>
<symbol id="icon-mobal-buy-cross" viewBox="0 0 32 32"><path d="m16 14.115 6.6-6.6L24.485 9.4l-6.6 6.6 6.6 6.6-1.885 1.885-6.6-6.6-6.6 6.6L7.515 22.6l6.6-6.6-6.6-6.6L9.4 7.515l6.6 6.6z"></path></symbol>

<symbol id="icon-select-arrow" viewBox="0 0 32 32"><path d="m16 18.667-5.333-5.333h10.667l-5.333 5.333z"></path></symbol>

<symbol id="icon-icon-check" viewBox="0 0 32 32"><path d="M4 1h24a4 4 0 0 1 4 4v22a4 4 0 0 1-4 4H4a4 4 0 0 1-4-4V5a4 4 0 0 1 4-4z"></path><path fill="#fff" style="fill: var(--color2, #fff); stroke: var(--color2, #fff)" stroke="#fff" stroke-width=".4" d="m7.914 16.503-.138-.131-2.067 1.958 7.282 6.947 15.298-14.594-2.053-1.959-13.245 12.623-5.077-4.844z"></path></symbol>

<symbol id="icon-ep_arrow-right" viewBox="0 0 32 32">
<path fill="#f3f3f3" style="fill: var(--color1, #f3f3f3)" d="M4.666 21.348c0.179 0.174 0.418 0.272 0.668 0.272s0.489-0.098 0.668-0.272l9.998-9.746 9.996 9.746c0.179 0.174 0.418 0.272 0.668 0.272s0.489-0.098 0.668-0.272c0.087-0.085 0.156-0.186 0.204-0.298s0.072-0.232 0.072-0.354c0-0.122-0.024-0.242-0.072-0.354s-0.116-0.213-0.204-0.298l-10.634-10.364c-0.187-0.182-0.437-0.284-0.698-0.284s-0.511 0.102-0.698 0.284l-10.634 10.364c-0.087 0.085-0.156 0.186-0.204 0.298s-0.072 0.232-0.072 0.354c0 0.122 0.024 0.242 0.072 0.354s0.116 0.213 0.204 0.298h-0.002z"></path>

<symbol id="icon-gallery_arrow-left" viewBox="0 0 32 32">
<path fill="#f3f3f3" d="M21.733 27.718c0.171-0.185 0.267-0.433 0.267-0.691s-0.096-0.506-0.267-0.691l-9.567-10.336 9.567-10.334c0.171-0.185 0.267-0.433 0.267-0.691s-0.096-0.506-0.267-0.691c-0.083-0.090-0.183-0.162-0.293-0.21s-0.228-0.074-0.347-0.074c-0.119 0-0.237 0.025-0.347 0.074s-0.209 0.12-0.293 0.21l-10.174 10.994c-0.179 0.193-0.279 0.452-0.279 0.722s0.1 0.529 0.279 0.722l10.174 10.994c0.083 0.090 0.183 0.162 0.293 0.21s0.228 0.074 0.347 0.074c0.119 0 0.237-0.025 0.347-0.074s0.209-0.12 0.293-0.21v0.002z"></path>
</symbol>
<symbol id="icon-gallery_arrow-right" viewBox="0 0 32 32">
<path fill="#f3f3f3" d="M10.267 4.282c-0.171 0.185-0.267 0.433-0.267 0.691s0.096 0.506 0.267 0.691l9.567 10.336-9.567 10.334c-0.171 0.185-0.267 0.433-0.267 0.691s0.096 0.506 0.267 0.691c0.083 0.090 0.183 0.162 0.293 0.21s0.228 0.074 0.347 0.074c0.119 0 0.237-0.025 0.347-0.074s0.209-0.12 0.293-0.21l10.174-10.994c0.179-0.193 0.279-0.452 0.279-0.722s-0.1-0.529-0.279-0.722l-10.174-10.994c-0.083-0.090-0.183-0.162-0.293-0.21s-0.228-0.074-0.347-0.074c-0.119 0-0.237 0.025-0.347 0.074s-0.209 0.12-0.293 0.21v-0.002z"></path>

</symbol>
</symbol></defs>
</svg>
