<svg aria-hidden="true" style="position: absolute; width: 0; height: 0; overflow: hidden;" version="1.1" xmlns="http://www.w3.org/2000/svg" xmlns:xlink="http://www.w3.org/1999/xlink">
<defs>
<symbol id="icon-social-instagram" viewBox="0 0 32 32">
<path d="M16 0c4.356 0 4.892 0.032 6.596 0.094 1.672 0.064 2.84 0.348 3.88 0.758 1.074 0.41 1.958 0.946 2.84 1.83 0.886 0.884 1.42 1.768 1.832 2.84 0.41 1.042 0.694 2.21 0.758 3.882 0.062 1.704 0.094 2.24 0.094 6.596s-0.032 4.892-0.094 6.596c-0.064 1.672-0.348 2.84-0.758 3.88-0.414 1.112-1.038 2.060-1.829 2.839l-0.001 0.001c-0.884 0.886-1.768 1.42-2.84 1.832-1.042 0.41-2.21 0.694-3.882 0.758-1.704 0.062-2.24 0.094-6.596 0.094s-4.892-0.032-6.596-0.094c-1.672-0.064-2.84-0.348-3.88-0.758-1.112-0.414-2.061-1.038-2.839-1.829l-0.001-0.001c-0.793-0.779-1.417-1.728-1.815-2.787l-0.017-0.053c-0.41-1.042-0.694-2.21-0.758-3.882-0.062-1.704-0.094-2.24-0.094-6.596s0.032-4.892 0.094-6.596c0.064-1.672 0.348-2.84 0.758-3.88 0.41-1.074 0.946-1.958 1.83-2.84 0.884-0.886 1.768-1.42 2.84-1.832 1.042-0.41 2.21-0.694 3.882-0.758 1.704-0.062 2.24-0.094 6.596-0.094zM16 2.082c-4.544 0-5.080 0.032-6.848 0.096-1.64 0.062-2.556 0.38-3.156 0.6-1.546 0.63-2.588 1.672-3.22 3.218-0.22 0.6-0.536 1.514-0.6 3.156-0.060 1.768-0.094 2.304-0.094 6.848s0.032 5.080 0.096 6.848c0.062 1.64 0.38 2.556 0.6 3.156 0.63 1.546 1.672 2.588 3.218 3.22 0.6 0.22 1.514 0.536 3.156 0.6 1.768 0.060 2.304 0.094 6.848 0.094s5.080-0.032 6.848-0.096c1.64-0.062 2.556-0.38 3.156-0.6 1.546-0.63 2.588-1.672 3.22-3.218 0.22-0.6 0.536-1.514 0.6-3.156 0.060-1.768 0.094-2.304 0.094-6.848s-0.032-5.080-0.096-6.848c-0.062-1.64-0.38-2.556-0.6-3.156-0.63-1.546-1.672-2.588-3.218-3.22-0.6-0.22-1.514-0.536-3.156-0.6-1.768-0.060-2.304-0.094-6.848-0.094zM16 22.406c3.537-0.003 6.403-2.869 6.406-6.406v-0c-0.002-3.537-2.869-6.404-6.406-6.406h-0c-3.537 0.002-6.404 2.869-6.406 6.406v0c0.002 3.537 2.869 6.404 6.406 6.406h0zM16 7.794c0.005 0 0.012-0 0.018-0 4.522 0 8.188 3.666 8.188 8.188 0 0.006 0 0.013-0 0.019v-0.001c0 0.005 0 0.012 0 0.018 0 4.522-3.666 8.188-8.188 8.188-0.006 0-0.013 0-0.019-0h0.001c-0.005 0-0.012 0-0.018 0-4.522 0-8.188-3.666-8.188-8.188 0-0.006 0-0.013 0-0.019v0.001c0-0.005-0-0.012-0-0.018 0-4.522 3.666-8.188 8.188-8.188 0.006 0 0.013 0 0.019 0h-0.001zM26.478 7.48c0 1.072-0.884 1.892-1.958 1.892-0.010 0-0.021 0-0.032 0-1.027 0-1.86-0.833-1.86-1.86 0-0.011 0-0.023 0-0.034l-0 0.002c0-1.074 0.82-1.958 1.892-1.958 1.074 0 1.958 0.884 1.958 1.958z"></path>
</symbol>
<symbol id="icon-social-tumblr" viewBox="0 0 32 32">
<path  d="M17.524 2v6.992h7.34v2.998h-7.308l-0.010 8.7c0 1.616 0.088 2.654 0.268 3.114 0.28 0.726 1.294 1.656 3.18 1.656 1.46 0 3.434-0.42 4.912-1.476v4.664c-1.232 0.56-2.38 0.788-3.378 1.014-1 0.226-2.082 0.34-3.244 0.34-1.294 0-5.028-0.036-6.56-3.762-0.276-0.67-0.414-1.644-0.414-2.92v-11.326h-4.216l0.020-3.064c1.396 0 5.586-0.81 5.586-6.93h3.826zM17.524 0h-3.824c-1.16 0-2.096 0.896-2.096 2 0 4.574-2.672 4.93-3.49 4.93-1.152 0-2.088 0.89-2.094 1.99l-0.020 3.064c0 0 0 0.001 0 0.001 0 0.558 0.234 1.062 0.609 1.418l0.001 0.001c0.194 0.186 0.426 0.334 0.68 0.436 0.254 0.1 0.528 0.152 0.804 0.152h2.12v9.328c0 1.542 0.184 2.738 0.56 3.65 0.946 2.296 3.186 5.030 8.51 5.030 1.318 0 2.572-0.132 3.726-0.392l0.23-0.052c0.978-0.22 2.226-0.494 3.568-1.104 0.356-0.16 0.658-0.418 0.868-0.736 0.202-0.3 0.323-0.67 0.324-1.068v-4.664c-0.001-0.39-0.117-0.754-0.317-1.057l0.005 0.007c-0.209-0.317-0.495-0.568-0.832-0.731l-0.012-0.005c-0.274-0.135-0.597-0.214-0.938-0.214-0.47 0-0.905 0.15-1.26 0.404l0.006-0.004c-1.246 0.89-2.84 1.078-3.66 1.078-0.836 0-1.148-0.29-1.216-0.368-0.036-0.156-0.136-0.742-0.136-2.404l0.008-6.7h5.216c1.156 0 2.094-0.896 2.094-2v-2.998c0-1.104-0.938-2-2.094-2h-5.246v-4.992c0-1.104-0.938-2-2.094-2z"></path>
</symbol>
<symbol id="icon-social-twitter" viewBox="0 0 32 32">
<path  d="M21.384 3.994c1.652 0 3.144 0.674 4.194 1.756 1.372-0.268 2.592-0.737 3.698-1.38l-0.056 0.030c-0.454 1.318-1.344 2.387-2.495 3.058l-0.027 0.014c1.224-0.142 2.34-0.449 3.378-0.902l-0.076 0.030c-0.791 1.129-1.741 2.083-2.832 2.852l-0.036 0.024c0.010 0.24 0.016 0.48 0.016 0.718 0 7.344-5.778 15.812-16.344 15.812-0.007 0-0.015 0-0.023 0-3.252 0-6.286-0.932-8.85-2.543l0.069 0.041c0.421 0.053 0.908 0.084 1.402 0.084 2.68 0 5.152-0.896 7.13-2.405l-0.029 0.021c-2.516-0.042-4.638-1.65-5.366-3.858 0.327 0.065 0.704 0.102 1.089 0.102 0.535 0 1.053-0.071 1.546-0.205l-0.041 0.010c-2.628-0.508-4.608-2.756-4.608-5.45v-0.070c0.774 0.416 1.66 0.666 2.602 0.696-1.54-0.989-2.548-2.69-2.556-4.627v-0.001c0-1.020 0.284-1.974 0.78-2.792 2.889 3.388 7.088 5.586 11.803 5.805l0.037 0.001c-0.096-0.38-0.152-0.816-0.152-1.266v-0c0-3.068 2.572-5.556 5.746-5.556zM30 6.598v0zM21.384 2c-3.924 0-7.176 2.86-7.676 6.556-3.318-0.671-6.154-2.398-8.213-4.808l-0.017-0.020c-0.369-0.437-0.917-0.713-1.53-0.713-0.723 0-1.356 0.384-1.707 0.959l-0.005 0.009c-0.669 1.090-1.066 2.41-1.066 3.822 0 0.931 0.172 1.822 0.487 2.643l-0.017-0.051c-0.319 0.352-0.515 0.821-0.516 1.336v0.072c0 1.952 0.774 3.766 2.060 5.124-0.028 0.125-0.044 0.269-0.044 0.417 0 0.223 0.037 0.437 0.104 0.637l-0.004-0.014c0.458 1.361 1.252 2.508 2.285 3.381l0.011 0.009c-0.648 0.15-1.392 0.236-2.157 0.236-0.403 0-0.8-0.024-1.19-0.070l0.047 0.005c-0.071-0.009-0.154-0.014-0.238-0.014-0.866 0-1.603 0.55-1.88 1.32l-0.004 0.014c-0.072 0.197-0.113 0.424-0.113 0.661 0 0.71 0.371 1.333 0.931 1.686l0.008 0.005c2.795 1.757 6.195 2.8 9.837 2.8 0.008 0 0.016 0 0.024 0h-0.001c11.37 0 18.21-8.878 18.344-17.548 0.931-0.772 1.739-1.645 2.422-2.612l0.028-0.042c0.251-0.33 0.402-0.748 0.402-1.201 0-0.675-0.336-1.272-0.85-1.633l-0.006-0.004c0.051-0.167 0.080-0.359 0.080-0.558 0-1.1-0.892-1.992-1.992-1.992-0.003 0-0.005 0-0.008 0h0c-0 0-0 0-0 0-0.366 0-0.71 0.099-1.005 0.271l0.009-0.005c-0.66 0.38-1.368 0.68-2.112 0.898-1.301-0.982-2.946-1.573-4.728-1.574h-0z"></path>
</symbol>
<symbol id="icon-social-youtube" viewBox="0 0 32 32">
<path  d="M29.384 5.512c-0.866-0.648-3.28-1.512-13.392-1.512-10.838 0-12.446 0.992-12.96 1.316-2.75 1.72-3.010 9.332-3.032 10.876 0.032 2.040 0.35 8.82 3.028 10.5 0.516 0.322 2.114 1.308 12.964 1.308 10.12 0 12.53-0.86 13.392-1.506 2.34-1.754 2.61-7.8 2.616-10.328-0.006-2.036-0.21-8.848-2.616-10.654zM28.216 24.804c-0.348 0.26-2.346 1.114-12.224 1.114-9.55 0-11.554-0.772-11.934-1.010-0.964-0.604-1.98-3.804-2.060-8.722 0.080-4.908 1.11-8.49 2.062-9.086 0.38-0.24 2.392-1.018 11.932-1.018 9.87 0 11.874 0.86 12.224 1.12 0.856 0.644 1.772 4.026 1.786 8.97-0.014 5.020-0.936 7.994-1.786 8.632zM22.506 15.182l-8.988-5.75c-0.148-0.095-0.328-0.152-0.522-0.152-0.37 0-0.692 0.208-0.856 0.513l-0.003 0.005c-0.086 0.151-0.136 0.331-0.136 0.524 0 0.001 0 0.002 0 0.002v-0 11.5c0 0.276 0.106 0.54 0.292 0.736 0.179 0.187 0.43 0.303 0.708 0.303 0.191 0 0.369-0.055 0.52-0.149l-0.004 0.002 8.988-5.752c0.292-0.19 0.482-0.515 0.482-0.884 0-0.003 0-0.005-0-0.008v0c0-0.002 0-0.004 0-0.007 0-0.369-0.19-0.693-0.478-0.881l-0.004-0.002zM14 19.98v-7.812l6.056 3.904-6.056 3.908z"></path>
</symbol>
</defs>
</svg>
